<svg id="Ebene_1" data-name="Ebene 1" xmlns="http://www.w3.org/2000/svg" xmlns:xlink="http://www.w3.org/1999/xlink" viewBox="0 0 239.5 66.86"><defs><style>.cls-1{fill:none;}.cls-2{clip-path:url(#clip-path);}.cls-3{fill:#fff;}</style><clipPath id="clip-path" transform="translate(-3.21 -3.73)"><rect class="cls-1" x="3.21" y="3.73" width="239.5" height="66.86"/></clipPath></defs><g class="cls-2"><path class="cls-3" d="M221.55,69.82a.76.76,0,1,0,.74-.71.7.7,0,0,0-.74.71m-5.93-6.67c1.87,0,2.65,1.3,2.65,3.37s-.78,3.16-2.45,3.16c-2.19,0-2.63-2-2.63-3.46,0-1.9.87-3.07,2.43-3.07m.09,7.44c2.46,0,3.7-1.59,3.7-4.3,0-2.47-1.41-4.06-3.6-4.06-2.43,0-3.76,1.69-3.76,4.12s1.11,4.24,3.66,4.24m-6.37-8.15h-1.08v8h1.08Zm-4.93,4c0,2-.85,3.16-2.82,3.16h-1.22V63.3h1.15c1.72,0,2.89.61,2.89,3.11m-2.51,4c1.88,0,3.65-1,3.65-4.3,0-2.9-1.9-3.7-3.82-3.7h-2.44v8Zm-6.74-3.39c0,1.38-.21,2.55-1.92,2.55s-2-1.22-2-2.87V62.44H190.2v4.77c0,2,.53,3.38,2.94,3.38,2.69,0,3.07-1.78,3.07-3.51V62.44h-1.05Zm-10.9-3.72v7.11h1.07V63.33h2.59v-.89h-6.23v.89Zm-4.4-.41a3.86,3.86,0,0,0-2.18-.63,2.24,2.24,0,0,0-2.52,2.18c0,1.34,1,1.79,2.09,2.2.87.32,1.7.64,1.7,1.65s-.57,1.32-1.69,1.32a4,4,0,0,1-2.09-.71l-.49.87a4.83,4.83,0,0,0,2.61.79c1.63,0,2.73-.78,2.73-2.45,0-1.48-1.16-1.92-2.16-2.34s-1.62-.69-1.62-1.5c0-.61.48-1.07,1.42-1.07a3.44,3.44,0,0,1,1.77.49Zm-12.2,6.9a.76.76,0,1,0,.74-.71.7.7,0,0,0-.74.71M165,63a4.28,4.28,0,0,0-2.46-.78c-2.55,0-4,1.78-4,4.2s1,4.16,3.91,4.16a5.41,5.41,0,0,0,2.51-.57V66.69H164v2.79a4.92,4.92,0,0,1-1.3.18c-2.22,0-2.87-1.54-2.87-3.33,0-2.17,1.12-3.16,2.7-3.16a3.77,3.77,0,0,1,2.09.59Zm-14.33,7.43v-7h.06l4,7H156v-8h-1v6.41h-.06l-3.59-6.41h-1.63v8Zm-4.19-8h-1.07v8h1.07Zm-5.33,3.46h-3.81V62.44h-1.07v8h1.07V66.82h3.81v3.62h1.08v-8h-1.08Zm-10.86-2.57v7.11h1.07V63.33H134v-.89h-6.22v.89Zm-7.7-.18c1.87,0,2.65,1.3,2.65,3.37s-.78,3.16-2.45,3.16c-2.19,0-2.64-2-2.64-3.46,0-1.9.88-3.07,2.44-3.07m.09,7.44c2.46,0,3.7-1.59,3.7-4.3,0-2.47-1.41-4.06-3.6-4.06-2.43,0-3.76,1.69-3.76,4.12s1.11,4.24,3.66,4.24m-8.6-1.06V62.44H113v8h4.55v-.91ZM110.61,63a4.11,4.11,0,0,0-2.5-.78c-2.51,0-3.9,1.78-3.9,4.2s1.11,4.16,3.83,4.16a4.19,4.19,0,0,0,2.67-.89l-.48-.75a3.56,3.56,0,0,1-2.15.7c-2.06,0-2.7-1.61-2.7-3.32,0-2.17,1.13-3.16,2.67-3.16a3.82,3.82,0,0,1,2.12.6ZM96.93,69.82a.76.76,0,1,0,.74-.71.7.7,0,0,0-.74.71M94.3,63a4.23,4.23,0,0,0-2.46-.78c-2.55,0-3.94,1.78-3.94,4.2s1,4.16,3.91,4.16A5.41,5.41,0,0,0,94.32,70V66.69H93.24v2.79a4.92,4.92,0,0,1-1.3.18c-2.23,0-2.87-1.54-2.87-3.33,0-2.17,1.11-3.16,2.7-3.16a3.77,3.77,0,0,1,2.09.59ZM80,70.44v-7H80l4,7h1.21v-8h-1v6.41H84.2l-3.59-6.41H79v8Zm-4.19-8H74.72v8h1.07ZM70.46,65.9H66.65V62.44H65.57v8h1.08V66.82h3.81v3.62h1.08v-8H70.46ZM63.16,63a4.16,4.16,0,0,0-2.5-.78c-2.51,0-3.91,1.78-3.91,4.2s1.11,4.16,3.83,4.16a4.2,4.2,0,0,0,2.68-.89L62.77,69a3.54,3.54,0,0,1-2.15.7c-2,0-2.7-1.61-2.7-3.32,0-2.17,1.13-3.16,2.68-3.16a3.76,3.76,0,0,1,2.11.6Zm-11.5.66h.09l1.1,3.49H50.53ZM51,62.44l-.33,1.09-2.34,6.91h1.12l.8-2.36h2.83l.81,2.36h1.16l-2.75-8Zm-8.11.71c1.87,0,2.65,1.3,2.65,3.37s-.78,3.16-2.46,3.16c-2.19,0-2.63-2-2.63-3.46,0-1.9.88-3.07,2.44-3.07M43,70.59c2.47,0,3.7-1.59,3.7-4.3,0-2.47-1.41-4.06-3.6-4.06-2.42,0-3.76,1.69-3.76,4.12s1.11,4.24,3.66,4.24M37.72,63a4.16,4.16,0,0,0-2.5-.78c-2.52,0-3.91,1.78-3.91,4.2s1.11,4.16,3.83,4.16a4.22,4.22,0,0,0,2.68-.89L37.33,69a3.56,3.56,0,0,1-2.15.7c-2,0-2.7-1.61-2.7-3.32,0-2.17,1.13-3.16,2.67-3.16a3.82,3.82,0,0,1,2.12.6Z" transform="translate(-3.21 -3.73)"/><path class="cls-3" d="M224.51,31.4H215l4.74-14h.11Zm3.1,8.77,2.87,7.67h12.23L226.09,3.73H213.57l-17,44.11h12.17l3-7.67ZM169.23,13.44h2.69c7.37,0,12.58,4.44,12.58,12.34,0,8.6-5.85,12.35-12.7,12.35h-2.57Zm-11.47,34.4H174a22.06,22.06,0,1,0,0-44.11H157.76ZM148.52,3.73H137.06V47.84h11.46ZM95.23,31.4H85.69l4.74-14h.12Zm3.1,8.77,2.87,7.67h12.22L96.81,3.73H84.29l-17,44.11H79.49l3-7.67ZM63.82,3.73H52.35V47.84H63.82Zm-48.15,0H3.21L21.75,47.84h8.9L49.48,3.73H37L26.32,30.52Z" transform="translate(-3.21 -3.73)"/></g></svg>